<svg xmlns="http://www.w3.org/2000/svg" width="400" height="320" fill="none"><path fill="#49C8F2" fill-rule="evenodd" d="M40 89.88c0-1.02.83-1.84 1.85-1.84H124l32 32.02V234.3c0 1.02-.83 1.85-1.85 1.85H41.85A1.85 1.85 0 0 1 40 234.3z" clip-rule="evenodd"/><path fill="#fff" fill-rule="evenodd" d="m124 88.04 32 32.02h-31.08a.92.92 0 0 1-.92-.92z" clip-rule="evenodd" opacity=".3"/><rect width="167.17" height="166.9" fill="#CDF" opacity=".8" rx="17.2" transform="rotate(-73.82 154.63 115.11)"/><rect width="147.72" height="147.47" fill="#E5EEFF" rx="15.2" transform="rotate(-103.69 226.41 28.8)"/><path fill="#05F" d="m214.01 158.98-11.68-10.63 1.73-1.6 14.6 13.34-14.6 13.35-1.73-1.6 11.68-10.64h-32.68v-2.22z"/><path fill="#fff" d="M64 141.41h40v2.67H64zm0 16.01h40v2.67H64zm0 16.02h40v2.67H64zm0 16.01h68v2.67H64zm0 16.01h68v2.67H64z"/><path fill="#fff" d="M123.97 85c1.03 0 2 .42 2.72 1.16l28.7 29.8c.68.7 1.06 1.64 1.06 2.61v110.3c0 3.92-3.02 7.13-6.71 7.13H45.7c-3.69 0-6.7-3.2-6.7-7.12V92.12c0-3.91 3.01-7.12 6.7-7.12h78.26Z"/><path fill="#05F" d="M140.93 126.5H54.71a3.76 3.76 0 0 0 0 7.52h86.22a3.76 3.76 0 1 0 0-7.51Z"/><path fill="#CED6E0" d="M140.93 145.63H54.71a3.76 3.76 0 0 0 0 7.51h86.22a3.76 3.76 0 1 0 0-7.51m0 18.65H54.1a3.77 3.77 0 1 0 0 7.54h86.83a3.77 3.77 0 1 0 0-7.54m0 18.87H54.1a3.77 3.77 0 1 0 0 7.55h86.83a3.77 3.77 0 1 0 0-7.55m0 18.88H54.1a3.77 3.77 0 1 0 0 7.54h86.83a3.77 3.77 0 1 0 0-7.54"/><path fill="#DDD" fill-rule="evenodd" d="m123.97 88.78 28.7 29.8v110.3c0 2.05-1.54 3.34-2.94 3.34H45.71c-1.4 0-2.94-1.3-2.94-3.34V92.12c0-2.04 1.54-3.34 2.94-3.34zm2.72-2.62a3.78 3.78 0 0 0-2.72-1.16H45.7c-3.68 0-6.7 3.2-6.7 7.12v136.76c0 3.91 3.02 7.12 6.71 7.12h104.02c3.7 0 6.71-3.2 6.71-7.12v-110.3c0-.98-.37-1.92-1.05-2.63l-28.7-29.8Z" clip-rule="evenodd"/><path fill="#DDD" d="M156.44 118.56 122.9 85v33.56h33.55Z"/><path fill="#fff" d="M345.97 85c1.03 0 2 .42 2.72 1.16l28.7 29.8c.68.7 1.06 1.64 1.06 2.61v110.3c0 3.92-3.02 7.13-6.71 7.13H267.7c-3.69 0-6.7-3.2-6.7-7.12V92.12c0-3.91 3.01-7.12 6.7-7.12h78.26Z"/><path fill="#05F" d="M362.93 126.5h-86.22a3.76 3.76 0 1 0 0 7.52h86.22a3.76 3.76 0 1 0 0-7.51Z"/><path fill="#CED6E0" d="M362.93 145.63h-86.22a3.76 3.76 0 0 0 0 7.51h86.22a3.76 3.76 0 1 0 0-7.51m0 18.65H276.1a3.77 3.77 0 1 0 0 7.54h86.83a3.77 3.77 0 1 0 0-7.54m0 18.87H276.1a3.77 3.77 0 1 0 0 7.55h86.83a3.77 3.77 0 1 0 0-7.55m0 18.88H276.1a3.77 3.77 0 1 0 0 7.54h86.83a3.77 3.77 0 1 0 0-7.54"/><path fill="#DDD" fill-rule="evenodd" d="m345.97 88.78 28.7 29.8v110.3c0 2.05-1.54 3.34-2.94 3.34H267.71c-1.4 0-2.94-1.3-2.94-3.34V92.12c0-2.04 1.54-3.34 2.94-3.34zm2.72-2.62a3.78 3.78 0 0 0-2.72-1.16H267.7c-3.69 0-6.71 3.2-6.71 7.12v136.76c0 3.91 3.02 7.12 6.71 7.12h104.02c3.7 0 6.71-3.2 6.71-7.12v-110.3c0-.98-.37-1.92-1.05-2.63l-28.7-29.8Z" clip-rule="evenodd"/><path fill="#DDD" d="M378.44 118.56 344.9 85v33.56h33.55Z"/><path fill="#FF5975" fill-rule="evenodd" d="M11.8 252.07c-.5.52-1.35.52-1.86 0a1.33 1.33 0 0 1 0-1.87l2.8-2.81a1.32 1.32 0 1 1 1.87 1.87l-2.8 2.81Zm-8.41-2.8a1.32 1.32 0 1 1 1.87-1.88l2.8 2.81c.52.52.52 1.36 0 1.88-.51.51-1.35.51-1.87 0l-2.8-2.82Zm6.54 6.55a1.33 1.33 0 0 1 0-1.87 1.32 1.32 0 0 1 1.87 0l2.8 2.81c.53.52.53 1.36 0 1.88-.5.51-1.34.51-1.86 0l-2.8-2.82Zm-6.54 2.81c.51.52 1.35.52 1.87 0l2.8-2.8c.52-.52.52-1.36 0-1.88a1.32 1.32 0 0 0-1.87 0l-2.8 2.81a1.33 1.33 0 0 0 0 1.88ZM268.8 63.07c-.5.52-1.35.52-1.86 0a1.33 1.33 0 0 1 0-1.87l2.8-2.81a1.32 1.32 0 0 1 1.87 0c.52.52.52 1.36 0 1.87l-2.8 2.81Zm-8.41-2.8a1.33 1.33 0 0 1 0-1.88 1.32 1.32 0 0 1 1.87 0l2.8 2.81a1.33 1.33 0 0 1-1.87 1.87zm6.54 6.55a1.33 1.33 0 0 1 1.87-1.87l2.8 2.81a1.32 1.32 0 1 1-1.87 1.87l-2.8-2.8Zm-6.54 2.81c.51.52 1.35.52 1.87 0l2.8-2.8a1.33 1.33 0 0 0-1.87-1.88l-2.8 2.81a1.33 1.33 0 0 0 0 1.87M380.8 258.07c-.5.52-1.35.52-1.86 0a1.33 1.33 0 0 1 0-1.87l2.8-2.81a1.32 1.32 0 1 1 1.87 1.87l-2.8 2.81Zm-8.41-2.8a1.32 1.32 0 1 1 1.87-1.88l2.8 2.81a1.33 1.33 0 0 1-1.87 1.88l-2.8-2.82Zm6.54 6.55a1.33 1.33 0 0 1 1.87-1.87l2.8 2.81a1.322 1.322 0 1 1-1.86 1.88l-2.8-2.82Zm-6.54 2.81c.51.52 1.35.52 1.87 0l2.8-2.8a1.33 1.33 0 0 0-1.87-1.88l-2.8 2.81a1.33 1.33 0 0 0 0 1.88Z" clip-rule="evenodd"/><path fill="#3D99F5" fill-rule="evenodd" d="M46 269.01a6 6 0 1 1-12.01.01 6 6 0 0 1 12.01 0Zm-9 0a3 3 0 1 0 6 0 3 3 0 0 0-6 0m202-184a6 6 0 1 1-12.01.01 6 6 0 0 1 12.01 0Zm-9 0a3 3 0 1 0 6 0 3 3 0 0 0-6 0" clip-rule="evenodd"/><rect width="69.45" height="40.91" fill="#3D99F5" rx="5.94" transform="matrix(1 0 -.00074 1 9.03 178)"/><path fill="#fff" d="m17.64 209 .02-19.48h5.5c1.49 0 2.83.2 4.03.57 1.2.38 2.22.97 3.07 1.76a7.54 7.54 0 0 1 1.97 2.99c.46 1.22.69 2.66.69 4.33s-.23 3.13-.7 4.36a8.2 8.2 0 0 1-1.94 3.08c-.83.8-1.84 1.4-3.02 1.8-1.15.4-2.45.59-3.88.59h-5.73Zm4.4-3.56h.84c.83 0 1.59-.1 2.27-.32a4.3 4.3 0 0 0 1.73-1.05c.48-.5.85-1.14 1.1-1.94.29-.8.43-1.78.43-2.96 0-1.15-.14-2.12-.42-2.9a4.45 4.45 0 0 0-1.1-1.88 4 4 0 0 0-1.74-1.01c-.67-.2-1.43-.3-2.27-.3h-.83zm22.48 3.92a8.02 8.02 0 0 1-6.4-2.72 9.4 9.4 0 0 1-1.8-3.2 13.5 13.5 0 0 1-.63-4.27c0-1.6.21-3 .63-4.24a8.8 8.8 0 0 1 1.82-3.14c.78-.85 1.7-1.5 2.78-1.94 1.1-.46 2.3-.69 3.62-.69 1.31 0 2.5.23 3.58.7a7.5 7.5 0 0 1 2.81 1.93 8.8 8.8 0 0 1 1.79 3.17c.44 1.23.66 2.64.65 4.21 0 1.6-.22 3.02-.66 4.27a9.1 9.1 0 0 1-1.8 3.2 8 8 0 0 1-2.8 2.03 9.1 9.1 0 0 1-3.59.69m0-3.8c1.34 0 2.4-.56 3.17-1.7.78-1.15 1.17-2.72 1.17-4.69 0-1.95-.38-3.47-1.16-4.57a3.68 3.68 0 0 0-3.16-1.64c-1.34 0-2.4.54-3.17 1.64-.78 1.1-1.17 2.62-1.17 4.57 0 1.97.39 3.54 1.16 4.7a3.64 3.64 0 0 0 3.17 1.7Zm20.63 3.8c-1.23 0-2.4-.21-3.49-.63a8.5 8.5 0 0 1-2.9-1.91 9.05 9.05 0 0 1-1.94-3.1 12.1 12.1 0 0 1-.7-4.34c0-1.61.24-3.05.74-4.3a9.8 9.8 0 0 1 2-3.23 8.45 8.45 0 0 1 2.93-2 9.2 9.2 0 0 1 3.53-.69c1.25 0 2.38.26 3.37.78 1 .5 1.83 1.09 2.48 1.76l-2.33 2.81a7 7 0 0 0-1.58-1.1 4.15 4.15 0 0 0-3.73 0c-.58.28-1.1.68-1.53 1.22-.42.54-.76 1.2-1.02 1.97a9 9 0 0 0-.36 2.63c0 2.01.43 3.58 1.28 4.7.86 1.09 2 1.63 3.44 1.63.8 0 1.5-.16 2.12-.5a6.8 6.8 0 0 0 1.67-1.32l2.33 2.75a7.92 7.92 0 0 1-6.3 2.87Z"/><rect width="68.52" height="39.98" fill="#F23030" rx="5.8" transform="matrix(1 0 .00078 1 239 178)"/><path fill="#fff" d="M247.4 209.03v-20.8h7.14c1.15 0 2.22.12 3.22.35 1 .21 1.88.58 2.62 1.11.74.51 1.33 1.2 1.75 2.08.45.85.68 1.9.68 3.15 0 1.22-.23 2.27-.67 3.16a6 6 0 0 1-1.76 2.2c-.74.58-1.6 1-2.58 1.28s-2.02.41-3.12.41h-2.59v7.05h-4.68Zm4.7-10.79h2.29c2.55 0 3.82-1.1 3.82-3.31 0-1.09-.34-1.85-1.02-2.3a5.35 5.35 0 0 0-2.93-.67h-2.17v6.28Zm14.3 10.78v-20.8h5.86c1.6 0 3.03.2 4.31.6a8.5 8.5 0 0 1 3.29 1.89c.91.83 1.61 1.89 2.1 3.19.5 1.3.74 2.83.74 4.62 0 1.78-.25 3.34-.74 4.66a8.8 8.8 0 0 1-2.07 3.28 8.6 8.6 0 0 1-3.22 1.92 12.7 12.7 0 0 1-4.14.63h-6.13Zm4.7-3.8h.88c.9 0 1.7-.12 2.43-.35.72-.24 1.34-.6 1.85-1.12a5.3 5.3 0 0 0 1.18-2.07c.3-.85.44-1.9.44-3.16 0-1.23-.15-2.26-.45-3.1a4.76 4.76 0 0 0-1.18-2 4.3 4.3 0 0 0-1.85-1.08 8.5 8.5 0 0 0-2.42-.32h-.9l.01 13.2Zm15.55 3.79-.01-20.8h13.1v3.96h-8.41v4.82h7.2v3.95h-7.2v8.07z"/></svg>