<svg xmlns="http://www.w3.org/2000/svg" width="300" height="180" viewBox="0 0 300 180">
  <path fill="#3D99F5" fill-rule="nonzero" d="M270 166C270.552285 166 271 165.552285 271 165 271 164.447715 270.552285 164 270 164 269.447715 164 269 164.447715 269 165 269 165.552285 269.447715 166 270 166zM270 167C268.895431 167 268 166.104569 268 165 268 163.895431 268.895431 163 270 163 271.104569 163 272 163.895431 272 165 272 166.104569 271.104569 167 270 167zM164 17C164.552285 17 165 16.5522847 165 16 165 15.4477153 164.552285 15 164 15 163.447715 15 163 15.4477153 163 16 163 16.5522847 163.447715 17 164 17zM164 18C162.895431 18 162 17.1045695 162 16 162 14.8954305 162.895431 14 164 14 165.104569 14 166 14.8954305 166 16 166 17.1045695 165.104569 18 164 18zM285 72C285.552285 72 286 71.5522847 286 71 286 70.4477153 285.552285 70 285 70 284.447715 70 284 70.4477153 284 71 284 71.5522847 284.447715 72 285 72zM285 73C283.895431 73 283 72.1045695 283 71 283 69.8954305 283.895431 69 285 69 286.104569 69 287 69.8954305 287 71 287 72.1045695 286.104569 73 285 73z"/>
  <polygon fill="#3D99F5" points="281 155 281 153 282 153 282 155 284 155 284 156 282 156 282 158 281 158 281 156 279 156 279 155"/>
  <polygon fill="#3D99F5" points="175 27 175 25 176 25 176 27 178 27 178 28 176 28 176 30 175 30 175 28 173 28 173 27"/>
  <path fill="#3D99F5" fill-rule="nonzero" d="M20,35 C20.5522847,35 21,34.5522847 21,34 C21,33.4477153 20.5522847,33 20,33 C19.4477153,33 19,33.4477153 19,34 C19,34.5522847 19.4477153,35 20,35 Z M20,36 C18.8954305,36 18,35.1045695 18,34 C18,32.8954305 18.8954305,32 20,32 C21.1045695,32 22,32.8954305 22,34 C22,35.1045695 21.1045695,36 20,36 Z"/>
  <path fill="#3D99F5" fill-rule="nonzero" d="M34.8062676 19.1937324C35.0645775 19.4520422 35.0645775 19.8708451 34.8062676 20.1291549L33.4031338 21.5322887C33.144824 21.7905985 32.7260211 21.7905985 32.4677113 21.5322887 32.2094015 21.2739789 32.2094015 20.855176 32.4677113 20.5968662L33.8708451 19.1937324C34.1291549 18.9354225 34.5479578 18.9354225 34.8062676 19.1937324L34.8062676 19.1937324zM31.5322887 22.4677113C31.7905985 22.7260211 31.7905985 23.144824 31.5322887 23.4031338L30.1291549 24.8062676C29.8708451 25.0645775 29.4520422 25.0645775 29.1937324 24.8062676 28.9354225 24.5479578 28.9354225 24.1291549 29.1937324 23.8708451L30.5968662 22.4677113C30.855176 22.2094015 31.2739789 22.2094015 31.5322887 22.4677113zM34.8062676 24.8062676C34.5479578 25.0645775 34.1291549 25.0645775 33.8708451 24.8062676L32.4677113 23.4031338C32.2094015 23.144824 32.2094015 22.7260211 32.4677113 22.4677113 32.7260211 22.2094015 33.144824 22.2094015 33.4031338 22.4677113L34.8062676 23.8708451C35.0645775 24.1291549 35.0645775 24.5479578 34.8062676 24.8062676zM31.5322887 21.5322887C31.2739789 21.7905985 30.855176 21.7905985 30.5968662 21.5322887L29.1937324 20.1291549C28.9354225 19.8708451 28.9354225 19.4520422 29.1937324 19.1937324 29.4520422 18.9354225 29.8708451 18.9354225 30.1291549 19.1937324L31.5322887 20.5968662C31.7905985 20.855176 31.7905985 21.2739789 31.5322887 21.5322887zM17.8062676 147.193732C18.0645775 147.452042 18.0645775 147.870845 17.8062676 148.129155L16.4031338 149.532289C16.144824 149.790599 15.7260211 149.790599 15.4677113 149.532289 15.2094015 149.273979 15.2094015 148.855176 15.4677113 148.596866L16.8708451 147.193732C17.1291549 146.935423 17.5479578 146.935423 17.8062676 147.193732L17.8062676 147.193732zM14.5322887 150.467711C14.7905985 150.726021 14.7905985 151.144824 14.5322887 151.403134L13.1291549 152.806268C12.8708451 153.064577 12.4520422 153.064577 12.1937324 152.806268 11.9354225 152.547958 11.9354225 152.129155 12.1937324 151.870845L13.5968662 150.467711C13.855176 150.209401 14.2739789 150.209401 14.5322887 150.467711zM17.8062676 152.806268C17.5479578 153.064577 17.1291549 153.064577 16.8708451 152.806268L15.4677113 151.403134C15.2094015 151.144824 15.2094015 150.726021 15.4677113 150.467711 15.7260211 150.209401 16.144824 150.209401 16.4031338 150.467711L17.8062676 151.870845C18.0645775 152.129155 18.0645775 152.547958 17.8062676 152.806268zM14.5322887 149.532289C14.2739789 149.790599 13.855176 149.790599 13.5968662 149.532289L12.1937324 148.129155C11.9354225 147.870845 11.9354225 147.452042 12.1937324 147.193732 12.4520422 146.935423 12.8708451 146.935423 13.1291549 147.193732L14.5322887 148.596866C14.7905985 148.855176 14.7905985 149.273979 14.5322887 149.532289z"/>
  <polygon fill="#9E9E9E" fill-rule="nonzero" points="160.507 89.167 151.75 81.2 153.046 80 164 90 153.046 100 151.75 98.8 160.507 90.833 136 90.833 136 89.167"/>
  <path fill="#F5F5F5" stroke="#BDBDBD" d="M116.500083,60.2071068 L92.7929761,36.5 L32,36.5 C31.1715729,36.5 30.5,37.1715729 30.5,38 L30.5,145.000073 C30.5,145.828501 31.1715729,146.500073 32,146.500073 L115.000083,146.500073 C115.82851,146.500073 116.500083,145.828501 116.500083,145.000073 L116.500083,60.2071068 Z"/>
  <path fill="#BDBDBD" d="M93.0000829,36 L117.000083,60 L94.0000829,60 C93.4477981,60 93.0000829,59.5522847 93.0000829,59 L93.0000829,36 Z"/>
  <rect width="51" height="2" x="48" y="87" fill="#9E9E9E"/>
  <rect width="51" height="4" x="48" y="75" fill="#3D99F5"/>
  <rect width="51" height="2" x="48" y="97" fill="#9E9E9E"/>
  <rect width="21" height="2" x="78" y="107" fill="#9E9E9E"/>
  <rect width="21" height="2" x="78" y="117" fill="#9E9E9E"/>
  <rect width="21" height="2" x="78" y="127" fill="#9E9E9E"/>
  <rect width="48" height="24" x="22" y="106" fill="#3D99F5" rx="1"/>
  <path fill="#FFFFFF" fill-rule="nonzero" d="M30,124 L30,111 L34.1148564,111 C37.011236,111 39.1685393,111.993884 39.1685393,115.015291 C39.1685393,117.897554 37.011236,119.229358 34.1947566,119.229358 L32.3171036,119.229358 L32.3171036,124 L30,124 Z M32.3171036,117.380734 L34.0149813,117.380734 C35.9525593,117.380734 36.8913858,116.605505 36.8913858,115.015291 C36.8913858,113.385321 35.8726592,112.848624 33.9350811,112.848624 L32.3171036,112.848624 L32.3171036,117.380734 Z M41.6254682,124 L41.6254682,111 L45.1210986,111 C49.1161049,111 51.4731586,113.146789 51.4731586,117.440367 C51.4731586,121.753823 49.1161049,124 45.2409488,124 L41.6254682,124 Z M43.9425718,122.131498 L44.9612984,122.131498 C47.5980025,122.131498 49.0961298,120.640673 49.0961298,117.440367 C49.0961298,114.259939 47.5980025,112.868502 44.9612984,112.868502 L43.9425718,112.868502 L43.9425718,122.131498 Z M54.1098627,124 L54.1098627,111 L62,111 L62,112.948012 L56.4269663,112.948012 L56.4269663,116.625382 L61.1810237,116.625382 L61.1810237,118.573394 L56.4269663,118.573394 L56.4269663,124 L54.1098627,124 Z"/>
  <path fill="#3D99F5" d="M185,36 L246.000083,36 L270.000083,60 L270.000083,145.000073 C270.000083,146.104643 269.104652,147.000073 268.000083,147.000073 L185,147.000073 C183.895431,147.000073 183,146.104643 183,145.000073 L183,38 C183,36.8954305 183.895431,36 185,36 Z"/>
  <path fill="#3079C2" d="M241.5,66 L274.5,66 C275.328427,66 276,66.6715729 276,67.5 L276,100.5 C276,101.328427 275.328427,102 274.5,102 L241.5,102 C240.671573,102 240,101.328427 240,100.5 L240,67.5 C240,66.6715729 240.671573,66 241.5,66 Z"/>
  <path fill="#FFFFFF" fill-rule="nonzero" d="M250.386768,93 L247,75 L251.226463,75 L252.486005,83.4202454 C252.709924,85.297546 252.989822,87.202454 253.21374,89.107362 L253.3257,89.107362 C253.689567,87.202454 254.053435,85.297546 254.417303,83.4202454 L256.37659,75 L259.875318,75 L261.834606,83.4202454 C262.198473,85.2423313 262.562341,87.1748466 262.926209,89.107362 L263.038168,89.107362 C263.290076,87.1748466 263.541985,85.2699387 263.793893,83.4202454 L265.053435,75 L269,75 L265.753181,93 L260.575064,93 L258.783715,84.8282209 C258.475827,83.4478528 258.251908,81.9846626 258.05598,80.6595092 L257.94402,80.6595092 C257.720102,81.9846626 257.496183,83.4478528 257.188295,84.8282209 L255.480916,93 L250.386768,93 Z"/>
  <path fill="#FFFFFF" d="M246.000083,36 L270.000083,60 L247.000083,60 C246.447798,60 246.000083,59.5522847 246.000083,59 L246.000083,36 Z" opacity=".3"/>
  <rect width="30" height="2" x="201" y="76" fill="#FFFFFF"/>
  <rect width="30" height="2" x="201" y="88" fill="#FFFFFF"/>
  <rect width="30" height="2" x="201" y="100" fill="#FFFFFF"/>
  <rect width="51" height="2" x="201" y="112" fill="#FFFFFF"/>
  <rect width="51" height="2" x="201" y="124" fill="#FFFFFF"/>
  <path fill="#3D99F5" fill-rule="nonzero" d="M23,163 C23.5522847,163 24,162.552285 24,162 C24,161.447715 23.5522847,161 23,161 C22.4477153,161 22,161.447715 22,162 C22,162.552285 22.4477153,163 23,163 Z M23,164 C21.8954305,164 21,163.104569 21,162 C21,160.895431 21.8954305,160 23,160 C24.1045695,160 25,160.895431 25,162 C25,163.104569 24.1045695,164 23,164 Z"/>
</svg>
